<?xml version="1.0" encoding="utf-8"?>
<!-- Generator: Adobe Illustrator 17.0.0, SVG Export Plug-In . SVG Version: 6.00 Build 0)  -->
<!DOCTYPE svg PUBLIC "-//W3C//DTD SVG 1.1//EN" "http://www.w3.org/Graphics/SVG/1.1/DTD/svg11.dtd">
<svg version="1.1" id="Layer_1" xmlns="http://www.w3.org/2000/svg" xmlns:xlink="http://www.w3.org/1999/xlink" x="0px" y="0px"
	 width="500px" height="112px" viewBox="0 0 500 112" enable-background="new 0 0 500 112" xml:space="preserve">
<path fill="#4D3F5E" d="M287.778,38.571c-8.186,0-15.503,3.71-20.369,9.538V16.544c0-1.701-1.379-3.079-3.079-3.079
	c-1.701,0-3.079,1.379-3.079,3.079v78.399c0,1.701,1.379,3.079,3.079,3.079c1.701,0,3.079-1.379,3.079-3.079V65.099
	c0-11.232,9.138-20.369,20.369-20.369c11.232,0,20.37,9.138,20.37,20.369v29.844c0,1.701,1.379,3.079,3.079,3.079
	c1.701,0,3.079-1.379,3.079-3.079V65.099C314.306,50.448,302.429,38.571,287.778,38.571z"/>
<path fill="#4D3F5E" d="M138.323,13.465c-1.701,0-3.079,1.379-3.079,3.079v78.399c0,1.701,1.379,3.079,3.079,3.079
	c1.701,0,3.079-1.379,3.079-3.079V16.544C141.402,14.843,140.024,13.465,138.323,13.465z"/>
<path fill="#4D3F5E" d="M152.967,56l37.024-36.364c1.191-1.173,1.206-3.09,0.033-4.281c-1.173-1.191-3.09-1.206-4.281-0.033
	l-38.799,38.112c-0.173,0.115-0.338,0.247-0.489,0.401c-0.591,0.6-0.879,1.384-0.868,2.165c-0.01,0.781,0.277,1.565,0.868,2.165
	c0.152,0.154,0.316,0.286,0.489,0.401l38.799,38.112c1.191,1.173,3.108,1.158,4.281-0.033c1.173-1.191,1.158-3.108-0.033-4.281
	L152.967,56z"/>
<path fill="#4D3F5E" d="M409.285,38.571c-14.651,0-26.528,11.877-26.528,26.528v29.844c0,1.701,1.379,3.079,3.079,3.079
	c1.701,0,3.079-1.379,3.079-3.079V65.099c0-11.232,9.138-20.369,20.37-20.369s20.37,9.138,20.37,20.369v29.844
	c0,1.701,1.379,3.079,3.079,3.079c1.701,0,3.079-1.379,3.079-3.079V65.099C435.812,50.448,423.936,38.571,409.285,38.571z"/>
<path fill="#4D3F5E" d="M347.939,99.917c-14.651,0-26.528-11.877-26.528-26.528V43.545c0-1.701,1.379-3.079,3.079-3.079
	c1.701,0,3.079,1.379,3.079,3.079v29.844c0,11.232,9.138,20.369,20.369,20.369s20.37-9.138,20.37-20.369V43.545
	c0-1.701,1.379-3.079,3.079-3.079s3.079,1.379,3.079,3.079v29.844C374.467,88.04,362.59,99.917,347.939,99.917z"/>
<path fill="#4D3F5E" d="M247.039,39.462c-1.701,0-3.079,1.379-3.079,3.079v7.98c-5.306-6.766-13.552-11.115-22.818-11.115
	c-16.013,0-28.995,12.981-28.995,28.995s12.981,28.994,28.995,28.994c9.265,0,17.51-4.349,22.818-11.113v8.66
	c0,1.701,1.379,3.079,3.079,3.079c1.701,0,3.079-1.379,3.079-3.079V42.541C250.118,40.841,248.74,39.462,247.039,39.462z
	 M221.142,91.237c-12.592,0-22.836-10.244-22.836-22.837c0-12.592,10.244-22.836,22.836-22.836
	c12.592,0,22.837,10.244,22.837,22.836C243.978,80.993,233.734,91.237,221.142,91.237z"/>
<path fill="#4D3F5E" d="M496.921,39.045c-1.701,0-3.079,1.379-3.079,3.079v7.98c-5.306-6.766-13.552-11.115-22.818-11.115
	c-16.013,0-28.995,12.981-28.995,28.995s12.981,28.994,28.995,28.994c9.265,0,17.51-4.349,22.818-11.113v8.66
	c0,1.701,1.379,3.079,3.079,3.079c1.701,0,3.079-1.379,3.079-3.079V42.124C500,40.423,498.621,39.045,496.921,39.045z
	 M471.023,90.82c-12.592,0-22.836-10.244-22.836-22.837c0-12.592,10.244-22.836,22.836-22.836c12.592,0,22.837,10.244,22.837,22.836
	C493.86,80.575,483.615,90.82,471.023,90.82z"/>
<path fill="#4D3F5E" d="M55.898,0.102C25.026,0.102,0,25.129,0,56s25.026,55.898,55.898,55.898
	c30.871,0,55.898-25.026,55.898-55.898S86.769,0.102,55.898,0.102z M55.898,105.74C28.471,105.74,6.158,83.427,6.158,56
	S28.471,6.261,55.898,6.261S105.637,28.574,105.637,56S83.324,105.74,55.898,105.74z"/>
<path fill="#4D3F5E" d="M88.321,38.188C78.396,20.247,55.725,13.726,37.785,23.65C32.792,26.412,28.594,30.2,25.4,34.73
	c-1.825,2.533-3.361,5.336-4.533,8.384c-3.134,8.147-3.3,17.173-0.468,25.416c0.159,0.462,2.041,4.198,2.848,5.656
	c4.225,7.638,11.031,13.569,19.166,16.699c0.364,0.14,0.737,0.206,1.105,0.206c1.237,0,2.403-0.751,2.874-1.974
	c0.611-1.587-0.181-3.369-1.768-3.979c-6.785-2.611-12.464-7.559-15.989-13.932c-4.011-7.251-4.959-15.631-2.668-23.595
	c0.976-3.391,2.493-6.531,4.469-9.332c8.05-11.119,22.873-15.925,36.273-10.771c15.967,6.142,23.961,24.129,17.819,40.096
	c-3.063,7.962-9.082,14.165-16.949,17.469c-1.568,0.658-2.305,2.463-1.647,4.031c0.495,1.179,1.638,1.888,2.84,1.888
	c0.397,0,0.801-0.078,1.191-0.241c9.428-3.959,16.641-11.394,20.312-20.936c0.238-0.618,0.936-2.334,1.021-2.607
	C94.326,57.438,93.269,47.133,88.321,38.188z"/>
<path fill="#4D3F5E" d="M55.898,74.077c-9.969,0-18.08-8.111-18.08-18.08c0-1.701,1.379-3.079,3.079-3.079s3.079,1.379,3.079,3.079
	c0,6.574,5.348,11.922,11.922,11.922S67.82,62.571,67.82,55.997c0-1.701,1.379-3.079,3.079-3.079c1.701,0,3.079,1.379,3.079,3.079
	C73.978,65.967,65.867,74.077,55.898,74.077z"/>
</svg>
